<?xml version="1.0" encoding="utf-8"?>
<!-- Generator: Adobe Illustrator 19.0.0, SVG Export Plug-In . SVG Version: 6.00 Build 0)  -->
<svg version="1.1" id="Rat" xmlns="http://www.w3.org/2000/svg" xmlns:xlink="http://www.w3.org/1999/xlink" x="0px" y="0px"
	 viewBox="0 0 595.3 595.3" style="enable-background:new 0 0 595.3 595.3;" xml:space="preserve">
<style type="text/css">
	.st0{fill:#E23B33;}
</style>
<path id="Rat_Shape" class="st0" d="M556.9,82.5c-10.8-24.3-47-57.1-71.3-65.6c-24.3-8.4-64.1-0.3-88.7,22.3
	c-20,18.4-26,28.2-29.1,37c-2.1,5.9-4.8,13.5-6,20.9v0c-0.5,4.1-4.5,7-8.6,6.1c-10.4-2.3-29.5-6-44.4-6.3
	c-13.7-0.2-30.1,3.2-40.4,5.7c-4.5,1.1-8.8-2.2-8.8-6.8c-0.1-5.3-1.1-12.3-4.8-19.6c-8.5-16.9-19.6-32.6-57.8-47.4
	c-31.9-12.4-75.1-9.7-100.8,1.8c-28.1,12.6-42.4,37.9-54,61.8c-14.4,29.8-14.9,83.6-6.4,104c12.8,30.7,35.8,47.2,52.6,53
	c11.3,3.8,28.2,3.7,38.2,3.3c4.2-0.2,7.7,3.3,7.5,7.5c-0.7,13.6-0.9,41.5,7,61.4c7.7,19.4,29.7,62.3,50.7,101.2
	c0,0.1-14.6,2.9-31.4,6.8c-23.9,5.5-52.6,12.7-54.3,13.7c-3.5,2.1-3,10-2.7,12c0.5,3.4,5.3,8.1,6.9,8.3c3.9,0.3,31.3-7.6,55.7-14.6
	c18.5-5.3,34.9-9.3,35.5-8.2c5.1,9.3,10,18,14.4,25.8c5.2,9.1,10.7,16.4,14.1,23.6c1.1,2.3-16.6,5.8-32.5,14.7
	c-16.4,9.1-29.7,21-32.3,24c-1.8,2.1-3,6-1.2,10.7c1.1,2.9,10,5.7,12.4,5.1c6.8-1.7,16.5-12.5,33.1-21.1
	c16.3-8.5,32.9-14.9,33.8-13.6c9.7,14.3,16.9,21.6,22.6,31.2c9.8,16.5,27.3,45.9,46.6,39.5c6.4-2.1,31.1-33.6,53.3-68.6
	c1.3-2.1,16.1,11.3,30.4,23.2c13.8,11.4,22.7,20.6,27.1,21.4c5.4,1,14.2-7.7,14.1-14.7c-0.1-2.7-14.3-13.8-29.1-26.2
	c-14.5-12.1-30.1-22.8-29.2-24.3c7.6-12,14.5-23.7,20.1-33.9c4.3-7.8,8.9-16,13-24.7c0.6-1.2,15.9,3,31.4,7.1c15.3,4,26.7,10,31,8
	c6.9-3,11.6-13.8,9.4-18.3c-1.1-2.3-17-7.3-33.2-12c-14.2-4.1-28-6.5-27.7-7.3c15.5-34,28.8-64.8,27.6-69.6
	c-1.7-7.1,2.6-11.9,7-36.5c3.2-18.1,4.7-40.9,5.2-51.7c0.2-3.5,2.8-6.3,6.3-6.7c3.1-0.3,6.9-0.9,10.5-1.9c7.8-2,18.6-7.8,36.4-20.6
	c17.9-12.8,38.7-49.6,44.4-67.8S567.6,106.8,556.9,82.5z M265.1,336.2c-8.1,4-13,7-26.4,9.6c-6.9,1.4-29.4-0.2-40.7-4.6
	c-10.5-4.1-19.9-7.6-30-15.4s-15.7-13.2-15.7-15.3c0-4.4,6-9.4,11-9.4c5.1,0,14.5,9.2,29.7,16.6c14.3,7,17.9,6.1,25.4,7.3
	c2.9,0.5,7.7,0.6,10.7,0.4c14.1-1.3,21.4-5.9,25.3-8.8c4-3,13.7-12.9,17.2-12.5c8,1,18.9,3.4,18.9,7.1
	C290.4,319,273.2,332.1,265.1,336.2z M320.9,521.4c-4.3,3.7-17.7,13.5-23.3,13.5c-2.8,0-7.4-8.2-11.5-16.8
	c-4.1-8.5-9.1-21.1-9.1-31.6c0-4.6,6-7.4,13.4-9.2c7.2-1.7,27.3-1.8,29.9-1.1c6.8,1.7,12.9,2.2,12.7,6.4c-0.4,12.7-7,18.9-8.3,24.3
	C323.4,512.3,323.4,519.2,320.9,521.4z M431.1,320.3c-9.2,7.4-10.6,8.1-24.9,13.7c-11.3,4.4-28.6,5.8-41.6,3.6
	c-12.2-2.1-22.3-4.6-29.5-10.1c-9.7-7.3-16.4-15.1-16.4-19.8c0-3.7,6.4-4.3,14.5-4.9c3.5-0.3,9.3,5.9,13.2,9.2
	c8.1,6.8,14.8,8,28.8,9.9c2.9,0.4,7.8,0.4,10.7,0.1c7.5-0.9,12-0.4,25.8-8.2c20-11.2,17.8-14.4,25.1-12.6c2.2,0.6,5.8,1.2,5.6,5.6
	C442.4,309,440.5,312.7,431.1,320.3z"/>
</svg>
